<svg width="37" height="14" viewBox="0 0 37 14" fill="none" xmlns="http://www.w3.org/2000/svg">
<path d="M16.8754 2.79979L28.7266 11.1943C28.7266 11.1943 24.9133 11.0267 22.5541 10.4536C20.3608 9.92085 17.1223 8.47845 17.1223 8.47845C17.1223 8.47845 13.8186 10.2556 11.4437 10.7005C9.35012 11.0928 6.25881 10.9474 6.25881 10.9474L16.8754 2.79979Z" fill="var(--------T001_----, #FFD954)"/>
<path d="M28.6768 12.3199H28.6727C28.6705 12.3198 28.6674 12.3194 28.6637 12.3192C28.6557 12.3188 28.6441 12.3186 28.6292 12.3178C28.5992 12.3164 28.5554 12.3139 28.4994 12.3109C28.3871 12.305 28.2249 12.2966 28.0236 12.284C27.6212 12.2588 27.0599 12.219 26.4229 12.1611C25.1647 12.0466 23.5526 11.8564 22.288 11.5493C21.1124 11.2637 19.6945 10.7452 18.602 10.3146C18.0491 10.0967 17.5662 9.89548 17.2216 9.74905C17.2022 9.7408 17.1835 9.73209 17.165 9.72419C17.1355 9.73906 17.1049 9.75456 17.0731 9.77045C16.7149 9.94973 16.2122 10.1937 15.632 10.452C14.4937 10.9588 12.9748 11.5603 11.6517 11.8082C10.5066 12.0228 9.13119 12.0853 8.08029 12.0982C7.54691 12.1048 7.08101 12.0984 6.74825 12.0906C6.58194 12.0868 6.4483 12.0823 6.35533 12.0789C6.30883 12.0772 6.27209 12.0765 6.24692 12.0755C6.2345 12.0749 6.22478 12.0744 6.21792 12.0741C6.21451 12.0739 6.21159 12.0728 6.20963 12.0727L6.20756 12.0734H6.20618L3.12916 11.9284L5.57296 10.0536L16.1892 1.90527L16.848 1.3998L17.5268 1.87972L29.3784 10.2745L32.5024 12.4884L28.6768 12.3199Z" stroke="black" stroke-opacity="0.3" stroke-width="2.25384"/>
</svg>
