<svg width="50" height="6" viewBox="0 0 50 6" fill="none" xmlns="http://www.w3.org/2000/svg">
<g opacity="0.3">
<rect x="9.76953" width="1.14943" height="6" fill="#A6DDFF" fill-opacity="0.45"/>
<rect x="13.2188" width="1.14943" height="6" fill="#A6DDFF" fill-opacity="0.45"/>
<rect x="14.9414" width="1.14943" height="6" fill="#A6DDFF" fill-opacity="0.45"/>
<rect x="22.4141" width="1.14943" height="6" fill="#A6DDFF" fill-opacity="0.45"/>
<rect x="25.2891" width="1.14943" height="6" fill="#A6DDFF" fill-opacity="0.45"/>
<rect x="47.125" width="1.14943" height="6" fill="#A6DDFF" fill-opacity="0.45"/>
<rect x="48.8516" width="1.14943" height="6" fill="#A6DDFF" fill-opacity="0.45"/>
<rect x="27.5859" width="0.574713" height="6" fill="#A6DDFF" fill-opacity="0.45"/>
<rect x="36.207" width="0.574713" height="6" fill="#A6DDFF" fill-opacity="0.45"/>
<rect x="44.8281" width="0.574713" height="6" fill="#A6DDFF" fill-opacity="0.45"/>
<rect x="37.3555" width="0.574713" height="6" fill="#A6DDFF" fill-opacity="0.45"/>
<rect x="16.668" width="1.72414" height="6" fill="#A6DDFF" fill-opacity="0.45"/>
<rect x="19.5391" width="2.29885" height="6" fill="#A6DDFF" fill-opacity="0.45"/>
<rect x="28.7344" width="2.29885" height="6" fill="#A6DDFF" fill-opacity="0.45"/>
<rect x="40.8047" width="2.29885" height="6" fill="#A6DDFF" fill-opacity="0.45"/>
<path d="M4.02344 0L6.89648 4.90918L5.74707 6H1.14941L0 4.90918L2.87402 0H4.02344ZM2.87402 4.36328V5.4541H4.02344V4.36328H2.87402ZM2.87402 1.09082V3.81836H4.02344V1.09082H2.87402Z" fill="#A6DDFF" fill-opacity="0.45"/>
</g>
</svg>
