<svg width="196" height="15" viewBox="0 0 196 15" fill="none" xmlns="http://www.w3.org/2000/svg">
<g opacity="0.5">
<path d="M1.75348 10.1519V14.8428H0V7.92729H1.75348L5.33015 12.6886V7.92729H7.09358V14.8529H5.38993L1.75348 10.1519Z" fill="#A6DDFF"/>
<path d="M8.67767 14.8529V7.93736H10.4312V14.8529H8.67767Z" fill="#A6DDFF"/>
<path d="M18.6406 8.91376L13.8185 13.8663H18.8V14.873H11.6765V13.8663L16.4487 8.91376H11.8359V7.90714H18.6406V8.91376Z" fill="#A6DDFF"/>
<path d="M26.7105 8.91376L21.8885 13.8663H26.8699V14.873H19.7465V13.8663L24.5187 8.91376H19.9258V7.90714H26.7304L26.7105 8.91376Z" fill="#A6DDFF"/>
<path d="M29.3806 14.8529H27.5175L30.5064 7.93736H32.6683L35.6572 14.8529H33.7842L33.1266 13.2121H30.0082L29.3806 14.8529ZM31.5724 9.33653L30.4167 12.2356H32.748L31.5724 9.33653Z" fill="#A6DDFF"/>
<path d="M38.4767 10.1519V14.8428H36.7232V7.92729H38.4767L42.0534 12.6886V7.92729H43.8367V14.8529H42.1331L38.4767 10.1519Z" fill="#A6DDFF"/>
<path d="M54.2081 8.91376H50.2229V10.927H53.979V11.9336H50.2229V14.873H48.4695V7.96753H54.1882L54.2081 8.91376Z" fill="#A6DDFF"/>
<path d="M60.9331 7.93736H62.6766V11.8229C62.7291 12.2655 62.684 12.7144 62.5444 13.1374C62.4049 13.5603 62.1745 13.9467 61.8696 14.269C61.0424 14.8261 60.0491 15.0753 59.06 14.9737C56.649 15.0273 55.4734 13.9939 55.5332 11.8732V7.93736H57.2867V12.0343C57.2867 13.212 57.8944 13.8059 59.1198 13.7959C60.3453 13.7858 60.9729 13.2423 60.9331 12.0142V7.93736Z" fill="#A6DDFF"/>
<path d="M71.0454 8.91376H68.4052V14.8428H66.6617V8.91376H64.0216V7.90714H71.0454V8.91376Z" fill="#A6DDFF"/>
<path d="M77.7903 7.93736H79.5338V11.8229C79.5863 12.2655 79.5412 12.7144 79.4017 13.1374C79.2621 13.5603 79.0317 13.9467 78.7268 14.269C77.8996 14.8261 76.9063 15.0753 75.9173 14.9737C73.5062 15.0273 72.3306 13.9939 72.3904 11.8732V7.93736H74.1439V12.0343C74.1439 13.212 74.7516 13.8059 75.977 13.7959C77.2025 13.7858 77.8301 13.2423 77.7903 12.0142V7.93736Z" fill="#A6DDFF"/>
<path d="M88.2214 14.8428H86.2288L84.0071 12.135H82.9112V14.8428H81.1577V7.93736H84.9636C86.903 7.93736 87.8694 8.65201 87.8628 10.0814C87.8628 11.2793 87.2451 11.9537 85.8702 12.0947L88.2214 14.8428ZM82.8713 8.91376V11.1585H84.575C85.5713 11.1585 86.0595 10.8364 86.0196 10.1016C85.9798 9.36673 85.5613 8.89363 84.575 8.91376H82.8713Z" fill="#A6DDFF"/>
<path d="M91.0011 13.8663H95.4744V14.873H89.2476V7.96753H95.4744V8.97416H91.0011V10.8666H95.1954V11.8732H91.0011V13.8663Z" fill="#A6DDFF"/>
<path d="M101.622 10.1519V14.8428H99.868V7.92729H101.622L105.198 12.6886V7.92729H106.962V14.8529H105.258L101.622 10.1519Z" fill="#A6DDFF"/>
<path d="M109.841 14.8529H107.978L110.967 7.93736H113.129L116.118 14.8529H114.245L113.587 13.2121H110.469L109.841 14.8529ZM112.033 9.33653L110.877 12.2356H113.208L112.033 9.33653Z" fill="#A6DDFF"/>
<path d="M122.773 14.9434C121.836 15.0049 120.908 14.7303 120.153 14.1683V12.91C120.815 13.4351 121.632 13.7221 122.474 13.7255C123.669 13.7255 124.267 13.1416 124.267 11.984C123.805 12.2632 123.271 12.3964 122.733 12.3665C120.94 12.3061 119.993 11.5813 119.913 10.1922C120.023 8.66213 120.999 7.86691 122.833 7.80651C125.014 7.73604 126.07 8.92386 126.011 11.3901C125.951 13.8563 124.975 14.9938 122.773 14.9434ZM124.168 10.1418C124.183 9.97047 124.161 9.79781 124.103 9.63612C124.044 9.47442 123.952 9.32772 123.831 9.20653C123.71 9.08534 123.564 8.99266 123.403 8.93509C123.243 8.87752 123.072 8.8565 122.902 8.87353C122.742 8.86378 122.581 8.88767 122.43 8.94375C122.279 8.99984 122.141 9.08689 122.025 9.1994C121.909 9.31191 121.817 9.44746 121.756 9.59753C121.694 9.7476 121.664 9.90895 121.667 10.0714C121.66 10.2366 121.689 10.4012 121.751 10.5542C121.813 10.7072 121.906 10.8452 122.025 10.9587C122.144 11.0721 122.286 11.1586 122.44 11.2122C122.595 11.2657 122.759 11.2852 122.922 11.2693C123.709 11.229 124.128 10.8565 124.168 10.1418Z" fill="#A6DDFF"/>
<path d="M130.165 7.78635C131.729 7.78635 132.676 8.40036 133.005 9.64858H131.371C131.293 9.4012 131.134 9.1879 130.92 9.04346C130.707 8.89902 130.451 8.832 130.195 8.85337C129.279 8.96409 128.8 9.60832 128.77 10.7861C129.223 10.5077 129.745 10.3679 130.275 10.3835C132.078 10.4439 133.015 11.1988 133.094 12.6484C133.174 14.0979 132.098 14.9334 130.235 14.9434C128.043 14.9904 126.964 13.7959 126.997 11.3598C127.07 9.05804 128.126 7.86688 130.165 7.78635ZM128.83 12.5779C128.823 12.7556 128.853 12.933 128.917 13.0983C128.982 13.2637 129.081 13.4134 129.207 13.5378C129.333 13.6621 129.483 13.7584 129.648 13.8202C129.813 13.882 129.99 13.908 130.165 13.8966C130.327 13.9028 130.488 13.8743 130.638 13.8131C130.788 13.7518 130.923 13.6592 131.035 13.5413C131.147 13.4234 131.233 13.2828 131.288 13.1289C131.342 12.975 131.364 12.8113 131.351 12.6484C131.36 12.4819 131.334 12.3154 131.274 12.1603C131.213 12.0052 131.12 11.8653 131 11.7504C130.881 11.6354 130.738 11.5481 130.582 11.4946C130.425 11.4411 130.26 11.4226 130.095 11.4404C129.938 11.4309 129.781 11.4527 129.632 11.5048C129.484 11.5568 129.347 11.638 129.229 11.7437C129.112 11.8494 129.016 11.9775 128.947 12.1206C128.879 12.2637 128.839 12.4192 128.83 12.5779Z" fill="#A6DDFF"/>
<path d="M134.34 14.118V12.8597C135.075 13.3992 135.952 13.7042 136.86 13.7355C137.863 13.7355 138.361 13.4436 138.355 12.8597C138.355 12.2256 137.757 11.9034 136.611 11.8531H135.874V10.6653H136.581C137.637 10.6653 138.175 10.3331 138.195 9.65867C138.215 8.98423 137.817 8.83322 137.079 8.82316C136.792 8.80175 136.506 8.88264 136.271 9.05177C136.037 9.2209 135.868 9.46767 135.794 9.74929H134.14C134.439 8.46082 135.436 7.79644 137.129 7.73605C138.823 7.67565 139.889 8.37019 139.959 9.52781C139.978 9.7249 139.957 9.92388 139.898 10.1128C139.84 10.3017 139.743 10.4766 139.616 10.627C139.488 10.7774 139.332 10.9003 139.157 10.9882C138.981 11.076 138.789 11.1272 138.594 11.1384C139.02 11.1908 139.413 11.3949 139.704 11.7141C139.994 12.0333 140.162 12.4467 140.178 12.8799C140.178 14.1986 139.182 14.8931 137.189 14.8931C136.179 14.9744 135.173 14.7005 134.34 14.118Z" fill="#A6DDFF"/>
<path d="M144.034 14.9434C143.097 15.0049 142.169 14.7303 141.413 14.1683V12.91C142.076 13.4351 142.893 13.7221 143.735 13.7255C144.93 13.7255 145.528 13.1416 145.528 11.984C145.066 12.2632 144.531 12.3964 143.994 12.3665C142.2 12.3061 141.254 11.5813 141.174 10.1922C141.284 8.66213 142.26 7.86691 144.093 7.80651C146.275 7.73604 147.331 8.92386 147.271 11.3901C147.212 13.8563 146.235 14.9938 144.034 14.9434ZM145.428 10.1418C145.444 9.97047 145.422 9.79781 145.363 9.63612C145.305 9.47442 145.212 9.32772 145.091 9.20653C144.971 9.08534 144.825 8.99266 144.664 8.93509C144.504 8.87752 144.333 8.8565 144.163 8.87353C144.003 8.86378 143.842 8.88767 143.691 8.94375C143.54 8.99984 143.402 9.08689 143.286 9.1994C143.17 9.31191 143.078 9.44746 143.017 9.59753C142.955 9.7476 142.925 9.90895 142.928 10.0714C142.921 10.2366 142.95 10.4012 143.012 10.5542C143.073 10.7072 143.167 10.8452 143.286 10.9587C143.405 11.0721 143.546 11.1586 143.701 11.2122C143.856 11.2657 144.02 11.2852 144.183 11.2693C144.97 11.229 145.389 10.8565 145.458 10.1418H145.428Z" fill="#A6DDFF"/>
<path d="M154.086 8.98423C152.576 10.5977 151.598 12.6445 151.287 14.8428H149.503C149.833 12.6818 150.747 10.6546 152.143 8.98423H148.158V7.97761H154.066L154.086 8.98423Z" fill="#A6DDFF"/>
<path d="M158.151 7.78635C159.715 7.78635 160.662 8.40036 160.99 9.64858H159.406C159.328 9.4012 159.17 9.1879 158.956 9.04346C158.742 8.89902 158.487 8.832 158.231 8.85337C157.314 8.96409 156.836 9.60832 156.806 10.7861C157.258 10.5077 157.781 10.3679 158.31 10.3835C160.114 10.4439 161.05 11.1988 161.13 12.6484C161.21 14.0979 160.134 14.9334 158.271 14.9434C156.079 14.9904 154.999 13.7959 155.033 11.3598C155.066 9.05804 156.105 7.86688 158.151 7.78635ZM156.816 12.5779C156.809 12.7556 156.838 12.933 156.903 13.0983C156.968 13.2637 157.067 13.4134 157.193 13.5378C157.319 13.6621 157.469 13.7584 157.634 13.8202C157.799 13.882 157.975 13.908 158.151 13.8966C158.313 13.9028 158.474 13.8743 158.624 13.8131C158.774 13.7518 158.909 13.6592 159.021 13.5413C159.133 13.4234 159.219 13.2828 159.273 13.1289C159.328 12.975 159.349 12.8113 159.337 12.6484C159.346 12.4819 159.32 12.3154 159.259 12.1603C159.199 12.0052 159.106 11.8653 158.986 11.7504C158.867 11.6354 158.724 11.5481 158.567 11.4946C158.411 11.4411 158.245 11.4226 158.081 11.4404C157.924 11.4309 157.767 11.4527 157.618 11.5048C157.469 11.5568 157.332 11.638 157.215 11.7437C157.097 11.8494 157.002 11.9775 156.933 12.1206C156.865 12.2637 156.825 12.4192 156.816 12.5779Z" fill="#A6DDFF"/>
<path d="M170.156 11.8632H165.105V10.8565H170.156V11.8632Z" fill="#A6DDFF"/>
<path d="M174.351 14.118V12.9201C175.083 13.3699 175.915 13.6261 176.772 13.665C177.848 13.665 178.396 13.3227 178.406 12.6584C178.416 11.994 177.848 11.5209 176.742 11.5109H174.55V7.98768H180.01V8.99431H176.254V10.5646H177.25C179.163 10.5646 180.139 11.3196 180.169 12.7591C180.199 14.1985 179.173 14.9535 177.23 14.9937C176.199 15.0488 175.181 14.7391 174.351 14.118Z" fill="#A6DDFF"/>
<path d="M187.093 8.98423C185.579 10.595 184.6 12.6431 184.294 14.8428H182.51C182.84 12.6818 183.754 10.6546 185.15 8.98423H181.165V7.97761H187.073L187.093 8.98423Z" fill="#A6DDFF"/>
<path d="M189.524 14.8529H187.661L190.65 7.93736H192.812L195.801 14.8529H193.928L193.27 13.2121H190.152L189.524 14.8529ZM191.716 9.33653L190.56 12.2356H192.892L191.716 9.33653Z" fill="#A6DDFF"/>
<path d="M111.385 2.3707V3.08543C110.946 3.44789 110.387 3.62785 109.821 3.58874C108.576 3.52834 107.928 2.9344 107.828 1.78684C107.729 0.639292 108.526 0.0957153 109.731 0.0252516C110.728 0.0252516 111.286 0.41784 111.475 1.16274H110.618C110.565 0.983258 110.453 0.82711 110.301 0.719395C110.15 0.61168 109.966 0.558688 109.781 0.568868C109.104 0.568868 108.785 1.02185 108.725 1.82715C108.665 2.63245 109.183 2.91429 109.97 2.94449C110.497 2.9398 111.002 2.73492 111.385 2.3707Z" fill="#A6DDFF"/>
<path d="M115.131 3.53836H112.142V0.0856466H113.019V3.0552H115.101L115.131 3.53836Z" fill="#A6DDFF"/>
<path d="M116.416 3.53836H115.49L116.984 0.0856466H118.06L119.565 3.53836H118.628L118.299 2.723H116.745L116.416 3.53836ZM117.512 0.790296L116.934 2.23984H118.1L117.512 0.790296Z" fill="#A6DDFF"/>
<path d="M120.003 3.01496V2.3707C120.483 2.73797 121.065 2.94236 121.667 2.95456C122.175 2.95456 122.424 2.84382 122.424 2.56196C122.424 2.28011 122.175 2.19958 121.657 2.11905C121.222 2.08408 120.801 1.95352 120.421 1.73653C120.308 1.66117 120.217 1.55548 120.159 1.43111C120.101 1.30674 120.078 1.16854 120.093 1.03188C120.093 0.387636 120.631 0.0252516 121.587 0.0252516C122.544 0.0252516 123.062 0.3977 123.221 1.09227H122.374C122.319 0.932442 122.215 0.794517 122.077 0.698567C121.939 0.602616 121.774 0.553675 121.607 0.558792C121.219 0.558792 121.009 0.729879 120.989 1.0218C120.969 1.31372 121.209 1.46471 121.697 1.52511C122.823 1.66604 123.361 2.02843 123.321 2.60221C123.281 3.17598 122.833 3.60883 121.806 3.60883C121.155 3.63146 120.516 3.42119 120.003 3.01496Z" fill="#A6DDFF"/>
<path d="M123.909 3.01496V2.3707C124.392 2.73813 124.977 2.94242 125.582 2.95456C126.08 2.95456 126.329 2.82369 126.329 2.56196C126.329 2.35057 126.08 2.19958 125.572 2.11905C125.135 2.08361 124.71 1.95313 124.327 1.73653C124.215 1.65959 124.125 1.55359 124.067 1.42963C124.009 1.30568 123.985 1.16831 123.998 1.03188C124.048 0.387636 124.546 0.0252516 125.493 0.0252516C126.439 0.0252516 126.977 0.3977 127.127 1.09227H126.28C126.228 0.932357 126.126 0.79383 125.989 0.697584C125.853 0.601338 125.689 0.552632 125.522 0.558792C125.124 0.558792 124.925 0.729879 124.905 1.0218C124.885 1.31372 125.114 1.46471 125.612 1.52511C126.728 1.66604 127.276 2.02843 127.236 2.60221C127.196 3.17598 126.748 3.60883 125.722 3.60883C125.067 3.63126 124.426 3.42113 123.909 3.01496Z" fill="#A6DDFF"/>
<path d="M132.985 3.53836H131.988L130.873 2.18952H130.325V3.53836H129.448V0.0856466H131.351C132.347 0.0856466 132.805 0.437972 132.805 1.16274C132.805 1.88751 132.497 2.08884 131.809 2.16937L132.985 3.53836ZM130.305 0.568868V1.69628H131.161C131.66 1.69628 131.899 1.53519 131.879 1.16274C131.859 0.790291 131.65 0.568868 131.161 0.568868H130.305Z" fill="#A6DDFF"/>
<path d="M134.788 3.53836H133.503V0.0856466H134.748C136.243 0.0856466 136.97 0.629268 136.95 1.76675C136.93 2.90424 136.272 3.58869 134.788 3.53836ZM134.698 0.568868H134.37V3.04512H134.708C135.615 3.04512 136.063 2.65253 136.023 1.77677C135.984 0.901005 135.605 0.558802 134.698 0.568868Z" fill="#A6DDFF"/>
<path d="M141.364 3.53836H140.288L139.291 2.24991L138.295 3.53836H137.239L138.644 1.81707L137.329 0.0856466H138.325L139.221 1.36408L140.108 0.0856466H141.104L139.799 1.81707L141.364 3.53836Z" fill="#A6DDFF"/>
<path d="M144.243 2.04858H141.722V1.56542H144.243V2.04858Z" fill="#A6DDFF"/>
<path d="M148.706 1.81708C148.734 2.20717 148.621 2.59424 148.389 2.9069C148.156 3.21955 147.819 3.43669 147.441 3.51828L148.437 4.5249H147.361L146.494 3.57867C146.263 3.58731 146.032 3.5472 145.816 3.46096C145.601 3.37471 145.405 3.24419 145.242 3.07764C145.079 2.91108 144.952 2.71213 144.87 2.49341C144.787 2.27468 144.75 2.04095 144.761 1.80701C144.821 0.669521 145.488 0.0755927 146.753 0.0252615C147 0.00452238 147.248 0.0353108 147.482 0.115639C147.717 0.195967 147.932 0.324133 148.115 0.492201C148.299 0.66027 148.446 0.8646 148.547 1.09253C148.649 1.32045 148.703 1.56711 148.706 1.81708ZM146.714 0.568878C146.016 0.568878 145.658 1.03192 145.628 1.82716C145.598 2.62239 146.016 3.0351 146.714 3.07536C147.411 3.11563 147.77 2.64252 147.79 1.82716C147.809 1.01179 147.451 0.58901 146.733 0.568878H146.714Z" fill="#A6DDFF"/>
<path d="M151.785 1.19297V3.53836H150.908V0.0856466H151.785L153.578 2.46133V0.0856466H154.455V3.53836H153.608L151.785 1.19297Z" fill="#A6DDFF"/>
<path d="M155.889 3.53836H154.953L156.447 0.0856466H157.533L159.038 3.53836H158.101L157.772 2.723H156.208L155.889 3.53836ZM156.985 0.790296L156.407 2.23984H157.573L156.985 0.790296Z" fill="#A6DDFF"/>
<path d="M162.495 0.0151755C163.421 0.0151755 163.91 0.347406 163.959 0.941314C163.959 1.37416 163.67 1.63584 163.142 1.71637C163.7 1.8271 163.989 2.11902 164.019 2.59213C164.019 3.26321 163.501 3.59876 162.465 3.59876C161.469 3.59876 160.941 3.2565 160.931 2.59213C160.931 2.13915 161.22 1.84729 161.768 1.70636C161.269 1.58556 161.02 1.3238 161.02 0.911086C161.07 0.357443 161.568 0.0453743 162.495 0.0151755ZM162.495 2.08882C162.076 2.17942 161.867 2.36064 161.867 2.62236C161.867 2.88408 162.106 3.07531 162.515 3.09544C162.923 3.11558 163.142 2.92436 163.162 2.63244C163.182 2.34051 162.903 2.17942 162.455 2.08882H162.495ZM162.495 0.548716C162.136 0.548716 161.947 0.679592 161.927 0.941314C161.927 1.15271 162.106 1.31378 162.495 1.39431C162.873 1.31378 163.063 1.16278 163.063 0.95139C163.063 0.739999 162.853 0.558782 162.485 0.548716H162.495Z" fill="#A6DDFF"/>
<path d="M164.597 3.17599V2.57204C164.96 2.8007 165.375 2.92913 165.802 2.94449C166.34 2.94449 166.609 2.77336 166.619 2.44117C166.629 2.10899 166.34 1.86739 165.793 1.86739H164.697V0.105799H167.426V0.599035H165.543V1.38423H166.062C167.058 1.38423 167.496 1.75665 167.516 2.48142C167.536 3.20619 167.008 3.56861 166.052 3.58874C165.533 3.63331 165.017 3.48666 164.597 3.17599Z" fill="#A6DDFF"/>
<path d="M168.194 3.17599V2.54181C168.559 2.81211 168.996 2.9663 169.449 2.98473C169.957 2.98473 170.206 2.84381 170.196 2.55189C170.186 2.25997 169.897 2.06872 169.329 2.05865H168.961V1.47479H169.309C169.837 1.47479 170.106 1.30368 170.116 0.981557C170.126 0.659437 169.927 0.568868 169.558 0.568868C169.416 0.554821 169.274 0.592783 169.157 0.675896C169.04 0.759008 168.956 0.881714 168.921 1.0218H168.094C168.243 0.387627 168.732 0.0151755 169.578 0.0151755C170.425 0.0151755 170.953 0.33732 170.993 0.921162C171.001 1.01905 170.99 1.11761 170.961 1.21116C170.931 1.3047 170.883 1.3914 170.82 1.46625C170.757 1.5411 170.68 1.60259 170.594 1.64725C170.507 1.69191 170.413 1.71883 170.316 1.72645C170.528 1.75064 170.725 1.85159 170.869 2.01067C171.014 2.16974 171.097 2.37621 171.103 2.59213C171.103 3.2565 170.615 3.59876 169.628 3.59876C169.115 3.63462 168.607 3.48474 168.194 3.17599Z" fill="#A6DDFF"/>
<path d="M173.036 3.58874C172.568 3.6168 172.106 3.4778 171.73 3.19614V2.57204C172.06 2.83377 172.467 2.97559 172.886 2.97465C173.484 2.97465 173.783 2.68275 173.783 2.10897C173.551 2.2461 173.284 2.31252 173.016 2.30023C172.119 2.30023 171.651 1.93783 171.611 1.21306C171.661 0.448026 172.149 0.0554503 173.065 0.0252516C174.151 0.0252516 174.689 0.578915 174.659 1.807C174.63 3.03508 174.141 3.61894 173.036 3.58874ZM173.733 1.19297C173.74 1.10735 173.729 1.02109 173.701 0.940208C173.672 0.859322 173.626 0.785687 173.566 0.724433C173.507 0.663179 173.434 0.615799 173.355 0.585457C173.275 0.555114 173.19 0.54256 173.105 0.548716C173.025 0.54456 172.944 0.557207 172.869 0.585825C172.793 0.614443 172.724 0.658447 172.667 0.715094C172.609 0.771741 172.563 0.839794 172.532 0.915079C172.501 0.990365 172.486 1.07122 172.488 1.15267C172.484 1.23505 172.499 1.31721 172.529 1.39351C172.56 1.46981 172.607 1.53848 172.667 1.59485C172.726 1.65121 172.797 1.69394 172.875 1.72012C172.952 1.74631 173.034 1.75535 173.115 1.7466C173.193 1.75666 173.272 1.74979 173.346 1.72651C173.421 1.70323 173.49 1.66407 173.549 1.61162C173.607 1.55917 173.654 1.49466 173.686 1.42245C173.717 1.35023 173.734 1.272 173.733 1.19297Z" fill="#A6DDFF"/>
<path d="M178.067 0.609111C177.309 1.41423 176.818 2.43812 176.662 3.53836H175.775C175.938 2.45815 176.393 1.44444 177.09 0.609111H175.098V0.125951H178.087L178.067 0.609111Z" fill="#A6DDFF"/>
<path d="M180.099 0.0151513C180.406 -0.033075 180.721 0.0347381 180.981 0.205552C181.242 0.376366 181.432 0.638266 181.514 0.94129H180.697C180.657 0.817643 180.578 0.710898 180.472 0.637963C180.365 0.565028 180.238 0.530049 180.109 0.538616C179.651 0.599013 179.412 0.921133 179.402 1.54524C179.628 1.41132 179.887 1.345 180.149 1.35398C181.046 1.35398 181.524 1.75662 181.564 2.48139C181.604 3.20616 181.076 3.61889 180.129 3.62896C179.033 3.62896 178.495 3.05515 178.515 1.83714C178.535 0.619123 179.073 0.0453501 180.099 0.0151513ZM179.432 2.40091C179.427 2.49019 179.442 2.57941 179.474 2.6627C179.506 2.746 179.555 2.82146 179.618 2.88419C179.681 2.94693 179.757 2.99547 179.84 3.02667C179.922 3.05787 180.011 3.07104 180.099 3.06525C180.179 3.06684 180.259 3.05154 180.333 3.02034C180.407 2.98914 180.474 2.94271 180.529 2.88401C180.584 2.8253 180.627 2.75559 180.654 2.67935C180.681 2.60311 180.693 2.52199 180.687 2.44115C180.692 2.35794 180.679 2.27465 180.648 2.19711C180.618 2.11957 180.572 2.04963 180.512 1.99215C180.452 1.93467 180.381 1.89106 180.302 1.86429C180.224 1.83753 180.141 1.82822 180.059 1.83714C179.907 1.82588 179.755 1.87536 179.638 1.97501C179.521 2.07466 179.447 2.21664 179.432 2.37068V2.40091Z" fill="#A6DDFF"/>
<path d="M184.573 2.04858H182.052V1.56542H184.573V2.04858Z" fill="#A6DDFF"/>
<path d="M185.17 3.17599V2.54181C185.539 2.814 185.98 2.96829 186.436 2.98473C186.934 2.98473 187.183 2.84381 187.183 2.55189C187.183 2.25997 186.874 2.06872 186.306 2.05865H185.937V1.47479H186.296C186.824 1.47479 187.093 1.30368 187.103 0.981557C187.113 0.659437 186.914 0.568868 186.545 0.568868C186.402 0.556423 186.259 0.594805 186.141 0.677493C186.022 0.760181 185.937 0.881947 185.898 1.0218H185.071C185.223 0.384271 185.722 0.0487297 186.565 0.0151755C187.472 0.0151755 187.94 0.33732 187.98 0.921162C187.988 1.01984 187.977 1.11914 187.946 1.21331C187.916 1.30748 187.867 1.39465 187.803 1.46963C187.739 1.54461 187.661 1.60592 187.574 1.65002C187.486 1.69412 187.39 1.7201 187.292 1.72645C187.506 1.7504 187.704 1.85094 187.85 2.00981C187.996 2.16868 188.081 2.37531 188.089 2.59213C188.089 3.2565 187.601 3.59876 186.615 3.59876C186.099 3.63616 185.587 3.48625 185.17 3.17599Z" fill="#A6DDFF"/>
<path d="M191.557 3.53837H188.568V2.99481C188.89 2.58776 189.285 2.24617 189.733 1.98819C190.398 1.61909 190.696 1.30704 190.63 1.05203C190.63 0.729914 190.441 0.568873 190.082 0.568873C189.914 0.587578 189.756 0.657216 189.628 0.768613C189.5 0.88001 189.408 1.02794 189.365 1.19298H188.538C188.667 0.448074 189.195 0.0655318 190.112 0.035333C191.029 0.00513431 191.497 0.387652 191.527 1.04196C191.527 1.505 191.195 1.9177 190.53 2.28009C190.166 2.46815 189.83 2.70894 189.534 2.99481H191.527L191.557 3.53837Z" fill="#A6DDFF"/>
<path d="M192.852 3.53836H191.915L193.41 0.0856466H194.496L196 3.53836H195.063L194.735 2.723H193.171L192.852 3.53836ZM193.948 0.790296L193.37 2.23984H194.535L193.948 0.790296Z" fill="#A6DDFF"/>
</g>
</svg>
