<svg width="24" height="24" viewBox="0 0 24 24" fill="none" xmlns="http://www.w3.org/2000/svg">
<g clip-path="url(#clip0_28094_71814)">
<g filter="url(#filter0_d_28094_71814)">
<path fill-rule="evenodd" clip-rule="evenodd" d="M17.8344 18.1473H13.7093V19.8501H16.6892V21.9785H7.32377V19.8501H10.3037V18.1473H6.1785C5.6355 18.1473 5.19531 17.7071 5.19531 17.1641V13.4646H6.89805V16.0274C6.89805 16.4929 7.27545 16.8702 7.74078 16.8702H16.272C16.7375 16.8702 17.1147 16.4929 17.1147 16.0274V13.4646H18.8176V17.1641C18.8176 17.7071 18.3774 18.1473 17.8344 18.1473ZM8.17521 12.1875V2.53252C8.17521 2.22226 8.42676 1.9707 8.73703 1.9707H15.2759C15.5862 1.9707 15.8377 2.22226 15.8377 2.53252V12.1875H8.17521ZM15.2759 15.593H8.73703C8.42676 15.593 8.17521 15.3416 8.17521 15.0312V13.4646H15.8377V15.0312C15.8377 15.3416 15.5862 15.593 15.2759 15.593Z" fill="var(--Mobile-----M-C001, #D9F3FF)"/>
</g>
<path d="M6.89844 16.0273C6.89844 16.4928 7.27588 16.8701 7.74121 16.8701H16.2725C16.7377 16.8699 17.1143 16.4927 17.1143 16.0273V13.4648H18.8174V17.1641C18.8174 17.7071 18.377 18.1475 17.834 18.1475H13.709V19.8496H16.6895V21.9785H7.32422V19.8496H10.3037V18.1475H6.17871C5.63571 18.1475 5.19531 17.7071 5.19531 17.1641V13.4648H6.89844V16.0273ZM15.8379 15.0312C15.8379 15.3415 15.5864 15.5925 15.2764 15.5928H8.7373C8.42706 15.5928 8.17484 15.3416 8.1748 15.0312V13.4648H15.8379V15.0312ZM15.8379 12.1875H8.1748V11H15.8379V12.1875Z" fill="var(--------T005_--, #8CDF7F)"/>
</g>
<defs>
<filter id="filter0_d_28094_71814" x="5.19531" y="1.9707" width="14.6211" height="22.0078" filterUnits="userSpaceOnUse" color-interpolation-filters="sRGB">
<feFlood flood-opacity="0" result="BackgroundImageFix"/>
<feColorMatrix in="SourceAlpha" type="matrix" values="0 0 0 0 0 0 0 0 0 0 0 0 0 0 0 0 0 0 127 0" result="hardAlpha"/>
<feOffset dx="1" dy="2"/>
<feComposite in2="hardAlpha" operator="out"/>
<feColorMatrix type="matrix" values="0 0 0 0 0 0 0 0 0 0 0 0 0 0 0 0 0 0 0.75 0"/>
<feBlend mode="normal" in2="BackgroundImageFix" result="effect1_dropShadow_28094_71814"/>
<feBlend mode="normal" in="SourceGraphic" in2="effect1_dropShadow_28094_71814" result="shape"/>
</filter>
<clipPath id="clip0_28094_71814">
<rect width="24" height="24" fill="white"/>
</clipPath>
</defs>
</svg>
